<mxfile host="app.diagrams.net" modified="2023-03-15T04:10:43.829Z" agent="5.0 (Macintosh; Intel Mac OS X 10_15_7) AppleWebKit/537.36 (KHTML, like Gecko) Chrome/110.0.0.0 Safari/537.36" etag="-copWik07zFlJzRTyWna" version="20.8.23" type="github" pages="4">
  <diagram name="架构" id="efa7a0a1-bf9b-a30e-e6df-94a7791c09e9">
    <mxGraphModel dx="1242" dy="796" grid="1" gridSize="10" guides="1" tooltips="1" connect="1" arrows="1" fold="1" page="1" pageScale="1" pageWidth="827" pageHeight="1169" background="none" math="0" shadow="0">
      <root>
        <mxCell id="0" />
        <mxCell id="1" parent="0" />
        <mxCell id="qGXNGzoq3A2DczDlczLP-1" value="租户" style="rounded=1;whiteSpace=wrap;html=1;" parent="1" vertex="1">
          <mxGeometry x="200" y="230" width="120" height="60" as="geometry" />
        </mxCell>
        <mxCell id="qGXNGzoq3A2DczDlczLP-2" value="商户" style="rounded=1;whiteSpace=wrap;html=1;" parent="1" vertex="1">
          <mxGeometry x="370" y="80" width="120" height="60" as="geometry" />
        </mxCell>
        <mxCell id="qGXNGzoq3A2DczDlczLP-3" value="账户" style="rounded=1;whiteSpace=wrap;html=1;" parent="1" vertex="1">
          <mxGeometry x="200" y="320" width="120" height="60" as="geometry" />
        </mxCell>
        <mxCell id="qGXNGzoq3A2DczDlczLP-4" value="钱包" style="rounded=1;whiteSpace=wrap;html=1;" parent="1" vertex="1">
          <mxGeometry x="200" y="400" width="120" height="60" as="geometry" />
        </mxCell>
      </root>
    </mxGraphModel>
  </diagram>
  <diagram id="lPM4pmnN7MBSAjoaa-aI" name="表结构">
    <mxGraphModel dx="1242" dy="2450" grid="1" gridSize="10" guides="1" tooltips="1" connect="1" arrows="1" fold="1" page="1" pageScale="1" pageWidth="1169" pageHeight="1654" math="0" shadow="0">
      <root>
        <mxCell id="0" />
        <mxCell id="1" parent="0" />
        <mxCell id="MtZSlMMsmn_D86SxY0bk-5" style="edgeStyle=orthogonalEdgeStyle;rounded=1;orthogonalLoop=1;jettySize=auto;html=1;startArrow=diamondThin;startFill=0;endArrow=open;endFill=0;startSize=14;endSize=12;exitX=0.5;exitY=0;exitDx=0;exitDy=0;" parent="1" source="6Vpwtj4r9JLrSe8UNJMC-1" edge="1">
          <mxGeometry relative="1" as="geometry">
            <mxPoint x="1020" y="30" as="targetPoint" />
            <Array as="points">
              <mxPoint x="920" y="250" />
              <mxPoint x="960" y="250" />
              <mxPoint x="960" y="150" />
              <mxPoint x="930" y="150" />
              <mxPoint x="930" y="122" />
              <mxPoint x="1020" y="122" />
            </Array>
          </mxGeometry>
        </mxCell>
        <mxCell id="MtZSlMMsmn_D86SxY0bk-26" style="edgeStyle=orthogonalEdgeStyle;rounded=1;orthogonalLoop=1;jettySize=auto;html=1;entryX=0.5;entryY=0;entryDx=0;entryDy=0;startArrow=diamondThin;startFill=0;endArrow=open;endFill=0;startSize=14;endSize=12;" parent="1" source="6Vpwtj4r9JLrSe8UNJMC-1" target="MtZSlMMsmn_D86SxY0bk-6" edge="1">
          <mxGeometry relative="1" as="geometry" />
        </mxCell>
        <mxCell id="MtZSlMMsmn_D86SxY0bk-27" value="0..n" style="edgeLabel;html=1;align=center;verticalAlign=middle;resizable=0;points=[];" parent="MtZSlMMsmn_D86SxY0bk-26" vertex="1" connectable="0">
          <mxGeometry x="-0.8065" y="3" relative="1" as="geometry">
            <mxPoint as="offset" />
          </mxGeometry>
        </mxCell>
        <mxCell id="MtZSlMMsmn_D86SxY0bk-28" value="1" style="edgeLabel;html=1;align=center;verticalAlign=middle;resizable=0;points=[];" parent="MtZSlMMsmn_D86SxY0bk-26" vertex="1" connectable="0">
          <mxGeometry x="0.8494" relative="1" as="geometry">
            <mxPoint as="offset" />
          </mxGeometry>
        </mxCell>
        <mxCell id="6Vpwtj4r9JLrSe8UNJMC-1" value="&lt;p style=&quot;margin:0px;margin-top:4px;text-align:center;text-decoration:underline;&quot;&gt;&lt;b&gt;sys_staff&lt;/b&gt;&lt;/p&gt;&lt;hr&gt;&lt;p style=&quot;margin:0px;margin-left:8px;&quot;&gt;field1 = value1&lt;br&gt;field2 = value2&lt;br&gt;field3 = value3&lt;/p&gt;" style="verticalAlign=top;align=left;overflow=fill;fontSize=12;fontFamily=Helvetica;html=1;fillColor=#D4E1F5;movable=1;resizable=1;rotatable=1;deletable=1;editable=1;connectable=1;container=0;" parent="1" vertex="1">
          <mxGeometry x="840" y="270" width="160" height="80" as="geometry" />
        </mxCell>
        <mxCell id="MtZSlMMsmn_D86SxY0bk-30" style="edgeStyle=orthogonalEdgeStyle;rounded=1;orthogonalLoop=1;jettySize=auto;html=1;entryX=0;entryY=0.5;entryDx=0;entryDy=0;startArrow=diamondThin;startFill=0;endArrow=open;endFill=0;startSize=14;endSize=12;" parent="1" source="cSz9DEjXfmsqPm38V2Ll-1" target="MtZSlMMsmn_D86SxY0bk-29" edge="1">
          <mxGeometry relative="1" as="geometry" />
        </mxCell>
        <mxCell id="MtZSlMMsmn_D86SxY0bk-31" value="0..n" style="edgeLabel;html=1;align=center;verticalAlign=middle;resizable=0;points=[];" parent="MtZSlMMsmn_D86SxY0bk-30" vertex="1" connectable="0">
          <mxGeometry x="-0.6592" y="1" relative="1" as="geometry">
            <mxPoint as="offset" />
          </mxGeometry>
        </mxCell>
        <mxCell id="MtZSlMMsmn_D86SxY0bk-32" value="1" style="edgeLabel;html=1;align=center;verticalAlign=middle;resizable=0;points=[];" parent="MtZSlMMsmn_D86SxY0bk-30" vertex="1" connectable="0">
          <mxGeometry x="0.6655" y="-3" relative="1" as="geometry">
            <mxPoint as="offset" />
          </mxGeometry>
        </mxCell>
        <mxCell id="MtZSlMMsmn_D86SxY0bk-44" style="edgeStyle=orthogonalEdgeStyle;rounded=1;orthogonalLoop=1;jettySize=auto;html=1;entryX=0.468;entryY=-0.028;entryDx=0;entryDy=0;startArrow=diamondThin;startFill=0;endArrow=open;endFill=0;startSize=14;endSize=12;entryPerimeter=0;exitX=0;exitY=0.5;exitDx=0;exitDy=0;" parent="1" source="cSz9DEjXfmsqPm38V2Ll-1" target="MtZSlMMsmn_D86SxY0bk-43" edge="1">
          <mxGeometry relative="1" as="geometry">
            <mxPoint x="900" y="-60" as="sourcePoint" />
          </mxGeometry>
        </mxCell>
        <mxCell id="MtZSlMMsmn_D86SxY0bk-45" value="0...n" style="edgeLabel;html=1;align=center;verticalAlign=middle;resizable=0;points=[];" parent="MtZSlMMsmn_D86SxY0bk-44" vertex="1" connectable="0">
          <mxGeometry x="-0.8673" y="-1" relative="1" as="geometry">
            <mxPoint as="offset" />
          </mxGeometry>
        </mxCell>
        <mxCell id="MtZSlMMsmn_D86SxY0bk-46" value="0...n" style="edgeLabel;html=1;align=center;verticalAlign=middle;resizable=0;points=[];" parent="MtZSlMMsmn_D86SxY0bk-44" vertex="1" connectable="0">
          <mxGeometry x="0.7754" y="-3" relative="1" as="geometry">
            <mxPoint as="offset" />
          </mxGeometry>
        </mxCell>
        <mxCell id="MtZSlMMsmn_D86SxY0bk-49" style="edgeStyle=orthogonalEdgeStyle;rounded=1;orthogonalLoop=1;jettySize=auto;html=1;entryX=0.25;entryY=1;entryDx=0;entryDy=0;startArrow=diamondThin;startFill=0;endArrow=open;endFill=0;startSize=14;endSize=12;" parent="1" source="cSz9DEjXfmsqPm38V2Ll-1" target="MtZSlMMsmn_D86SxY0bk-33" edge="1">
          <mxGeometry relative="1" as="geometry" />
        </mxCell>
        <mxCell id="cSz9DEjXfmsqPm38V2Ll-1" value="&lt;p style=&quot;margin:0px;margin-top:4px;text-align:center;text-decoration:underline;&quot;&gt;&lt;b&gt;sys_tenant&lt;/b&gt;&lt;/p&gt;&lt;hr&gt;&lt;p style=&quot;margin:0px;margin-left:8px;&quot;&gt;code&lt;/p&gt;&lt;p style=&quot;margin:0px;margin-left:8px;&quot;&gt;name&lt;/p&gt;&lt;p style=&quot;margin:0px;margin-left:8px;&quot;&gt;merchant_basic_code&lt;br&gt;merchant_code&lt;br&gt;store_code&lt;/p&gt;" style="verticalAlign=top;align=left;overflow=fill;fontSize=12;fontFamily=Helvetica;html=1;fillColor=#D4E1F5;movable=1;resizable=1;rotatable=1;deletable=1;editable=1;connectable=1;container=0;" parent="1" vertex="1">
          <mxGeometry x="950" y="-90" width="190" height="120" as="geometry" />
        </mxCell>
        <mxCell id="MtZSlMMsmn_D86SxY0bk-6" value="&lt;p style=&quot;margin:0px;margin-top:4px;text-align:center;text-decoration:underline;&quot;&gt;&lt;b&gt;sys_user&lt;/b&gt;&lt;/p&gt;&lt;hr&gt;&lt;p style=&quot;margin:0px;margin-left:8px;&quot;&gt;field1 = value1&lt;br&gt;field2 = value2&lt;br&gt;field3 = value3&lt;/p&gt;" style="verticalAlign=top;align=left;overflow=fill;fontSize=12;fontFamily=Helvetica;html=1;fillColor=#D4E1F5;movable=1;resizable=1;rotatable=1;deletable=1;editable=1;connectable=1;container=0;" parent="1" vertex="1">
          <mxGeometry x="1010" y="420" width="160" height="80" as="geometry" />
        </mxCell>
        <mxCell id="MtZSlMMsmn_D86SxY0bk-8" value="&lt;p style=&quot;margin:0px;margin-top:4px;text-align:center;text-decoration:underline;&quot;&gt;&lt;b&gt;sys_menu&lt;/b&gt;&lt;/p&gt;&lt;hr&gt;&lt;p style=&quot;margin:0px;margin-left:8px;&quot;&gt;field1 = value1&lt;br&gt;field2 = value2&lt;br&gt;field3 = value3&lt;/p&gt;" style="verticalAlign=top;align=left;overflow=fill;fontSize=12;fontFamily=Helvetica;html=1;fillColor=#D4E1F5;movable=1;resizable=1;rotatable=1;deletable=1;editable=1;connectable=1;container=0;" parent="1" vertex="1">
          <mxGeometry x="1120" y="1030" width="160" height="80" as="geometry" />
        </mxCell>
        <mxCell id="MtZSlMMsmn_D86SxY0bk-9" value="&lt;p style=&quot;margin:0px;margin-top:4px;text-align:center;text-decoration:underline;&quot;&gt;&lt;b&gt;sys_role&lt;/b&gt;&lt;/p&gt;&lt;hr&gt;&lt;p style=&quot;margin:0px;margin-left:8px;&quot;&gt;field1 = value1&lt;br&gt;field2 = value2&lt;br&gt;field3 = value3&lt;/p&gt;" style="verticalAlign=top;align=left;overflow=fill;fontSize=12;fontFamily=Helvetica;html=1;fillColor=#D4E1F5;movable=1;resizable=1;rotatable=1;deletable=1;editable=1;connectable=1;container=0;" parent="1" vertex="1">
          <mxGeometry x="800" y="710" width="160" height="80" as="geometry" />
        </mxCell>
        <mxCell id="MtZSlMMsmn_D86SxY0bk-11" style="edgeStyle=orthogonalEdgeStyle;rounded=1;orthogonalLoop=1;jettySize=auto;html=1;entryX=1.031;entryY=0.611;entryDx=0;entryDy=0;entryPerimeter=0;startArrow=diamondThin;startFill=0;endArrow=open;endFill=0;startSize=14;endSize=12;" parent="1" source="MtZSlMMsmn_D86SxY0bk-10" target="MtZSlMMsmn_D86SxY0bk-8" edge="1">
          <mxGeometry relative="1" as="geometry" />
        </mxCell>
        <mxCell id="MtZSlMMsmn_D86SxY0bk-12" value="0..n" style="edgeLabel;html=1;align=center;verticalAlign=middle;resizable=0;points=[];" parent="MtZSlMMsmn_D86SxY0bk-11" vertex="1" connectable="0">
          <mxGeometry x="-0.8584" y="-5" relative="1" as="geometry">
            <mxPoint as="offset" />
          </mxGeometry>
        </mxCell>
        <mxCell id="MtZSlMMsmn_D86SxY0bk-13" value="1" style="edgeLabel;html=1;align=center;verticalAlign=middle;resizable=0;points=[];" parent="MtZSlMMsmn_D86SxY0bk-11" vertex="1" connectable="0">
          <mxGeometry x="0.7358" relative="1" as="geometry">
            <mxPoint as="offset" />
          </mxGeometry>
        </mxCell>
        <mxCell id="MtZSlMMsmn_D86SxY0bk-10" value="&lt;p style=&quot;margin:0px;margin-top:4px;text-align:center;text-decoration:underline;&quot;&gt;&lt;b&gt;sys_action_entry&lt;/b&gt;&lt;/p&gt;&lt;hr&gt;&lt;p style=&quot;margin:0px;margin-left:8px;&quot;&gt;field1 = value1&lt;br&gt;field2 = value2&lt;br&gt;field3 = value3&lt;/p&gt;" style="verticalAlign=top;align=left;overflow=fill;fontSize=12;fontFamily=Helvetica;html=1;fillColor=#D4E1F5;movable=1;resizable=1;rotatable=1;deletable=1;editable=1;connectable=1;container=0;" parent="1" vertex="1">
          <mxGeometry x="1320" y="1020" width="110" height="80" as="geometry" />
        </mxCell>
        <mxCell id="MtZSlMMsmn_D86SxY0bk-17" style="edgeStyle=orthogonalEdgeStyle;rounded=1;orthogonalLoop=1;jettySize=auto;html=1;exitX=0;exitY=0.5;exitDx=0;exitDy=0;entryX=1;entryY=0.5;entryDx=0;entryDy=0;startArrow=diamondThin;startFill=0;endArrow=open;endFill=0;startSize=14;endSize=12;" parent="1" source="MtZSlMMsmn_D86SxY0bk-16" target="MtZSlMMsmn_D86SxY0bk-9" edge="1">
          <mxGeometry relative="1" as="geometry" />
        </mxCell>
        <mxCell id="MtZSlMMsmn_D86SxY0bk-18" style="edgeStyle=orthogonalEdgeStyle;rounded=1;orthogonalLoop=1;jettySize=auto;html=1;entryX=0;entryY=0.5;entryDx=0;entryDy=0;startArrow=diamondThin;startFill=0;endArrow=open;endFill=0;startSize=14;endSize=12;" parent="1" source="MtZSlMMsmn_D86SxY0bk-16" target="MtZSlMMsmn_D86SxY0bk-8" edge="1">
          <mxGeometry relative="1" as="geometry" />
        </mxCell>
        <mxCell id="MtZSlMMsmn_D86SxY0bk-19" value="0..n" style="edgeLabel;html=1;align=center;verticalAlign=middle;resizable=0;points=[];" parent="MtZSlMMsmn_D86SxY0bk-18" vertex="1" connectable="0">
          <mxGeometry x="-0.5955" y="4" relative="1" as="geometry">
            <mxPoint as="offset" />
          </mxGeometry>
        </mxCell>
        <mxCell id="MtZSlMMsmn_D86SxY0bk-20" value="1" style="edgeLabel;html=1;align=center;verticalAlign=middle;resizable=0;points=[];" parent="MtZSlMMsmn_D86SxY0bk-18" vertex="1" connectable="0">
          <mxGeometry x="0.45" y="-1" relative="1" as="geometry">
            <mxPoint as="offset" />
          </mxGeometry>
        </mxCell>
        <mxCell id="MtZSlMMsmn_D86SxY0bk-16" value="&lt;p style=&quot;margin:0px;margin-top:4px;text-align:center;text-decoration:underline;&quot;&gt;&lt;b&gt;sys_role_memu_map&lt;/b&gt;&lt;/p&gt;&lt;hr&gt;&lt;p style=&quot;margin:0px;margin-left:8px;&quot;&gt;field1 = value1&lt;br&gt;field2 = value2&lt;br&gt;field3 = value3&lt;/p&gt;" style="verticalAlign=top;align=left;overflow=fill;fontSize=12;fontFamily=Helvetica;html=1;fillColor=#D4E1F5;movable=1;resizable=1;rotatable=1;deletable=1;editable=1;connectable=1;container=0;" parent="1" vertex="1">
          <mxGeometry x="1020" y="710" width="160" height="80" as="geometry" />
        </mxCell>
        <mxCell id="MtZSlMMsmn_D86SxY0bk-22" style="edgeStyle=orthogonalEdgeStyle;rounded=1;orthogonalLoop=1;jettySize=auto;html=1;startArrow=diamondThin;startFill=0;endArrow=open;endFill=0;startSize=14;endSize=12;" parent="1" source="MtZSlMMsmn_D86SxY0bk-21" target="MtZSlMMsmn_D86SxY0bk-9" edge="1">
          <mxGeometry relative="1" as="geometry" />
        </mxCell>
        <mxCell id="MtZSlMMsmn_D86SxY0bk-24" value="0..n" style="edgeLabel;html=1;align=center;verticalAlign=middle;resizable=0;points=[];" parent="MtZSlMMsmn_D86SxY0bk-22" vertex="1" connectable="0">
          <mxGeometry x="-0.7868" y="-3" relative="1" as="geometry">
            <mxPoint as="offset" />
          </mxGeometry>
        </mxCell>
        <mxCell id="MtZSlMMsmn_D86SxY0bk-23" style="edgeStyle=orthogonalEdgeStyle;rounded=1;orthogonalLoop=1;jettySize=auto;html=1;startArrow=diamondThin;startFill=0;endArrow=open;endFill=0;startSize=14;endSize=12;" parent="1" source="MtZSlMMsmn_D86SxY0bk-21" target="MtZSlMMsmn_D86SxY0bk-6" edge="1">
          <mxGeometry relative="1" as="geometry" />
        </mxCell>
        <mxCell id="MtZSlMMsmn_D86SxY0bk-25" value="o..n" style="edgeLabel;html=1;align=center;verticalAlign=middle;resizable=0;points=[];" parent="MtZSlMMsmn_D86SxY0bk-23" vertex="1" connectable="0">
          <mxGeometry x="-0.8545" y="-3" relative="1" as="geometry">
            <mxPoint as="offset" />
          </mxGeometry>
        </mxCell>
        <mxCell id="MtZSlMMsmn_D86SxY0bk-21" value="&lt;p style=&quot;margin:0px;margin-top:4px;text-align:center;text-decoration:underline;&quot;&gt;&lt;b&gt;sys_user_role_map&lt;/b&gt;&lt;/p&gt;&lt;hr&gt;&lt;p style=&quot;margin:0px;margin-left:8px;&quot;&gt;field1 = value1&lt;br&gt;field2 = value2&lt;br&gt;field3 = value3&lt;/p&gt;" style="verticalAlign=top;align=left;overflow=fill;fontSize=12;fontFamily=Helvetica;html=1;fillColor=#D4E1F5;movable=1;resizable=1;rotatable=1;deletable=1;editable=1;connectable=1;container=0;" parent="1" vertex="1">
          <mxGeometry x="960" y="590" width="160" height="60" as="geometry" />
        </mxCell>
        <mxCell id="MtZSlMMsmn_D86SxY0bk-29" value="&lt;p style=&quot;margin:0px;margin-top:4px;text-align:center;text-decoration:underline;&quot;&gt;&lt;b&gt;mch_merchant_basic&lt;/b&gt;&lt;/p&gt;&lt;hr&gt;&lt;p style=&quot;margin:0px;margin-left:8px;&quot;&gt;field1 = value1&lt;br&gt;field2 = value2&lt;br&gt;field3 = value3&lt;/p&gt;" style="verticalAlign=top;align=left;overflow=fill;fontSize=12;fontFamily=Helvetica;html=1;fillColor=#D4E1F5;movable=1;resizable=1;rotatable=1;deletable=1;editable=1;connectable=1;container=0;" parent="1" vertex="1">
          <mxGeometry x="1120" y="-290" width="160" height="80" as="geometry" />
        </mxCell>
        <mxCell id="MtZSlMMsmn_D86SxY0bk-34" style="edgeStyle=orthogonalEdgeStyle;rounded=1;orthogonalLoop=1;jettySize=auto;html=1;entryX=0.75;entryY=1;entryDx=0;entryDy=0;startArrow=diamondThin;startFill=0;endArrow=open;endFill=0;startSize=14;endSize=12;" parent="1" source="MtZSlMMsmn_D86SxY0bk-33" target="MtZSlMMsmn_D86SxY0bk-29" edge="1">
          <mxGeometry relative="1" as="geometry" />
        </mxCell>
        <mxCell id="MtZSlMMsmn_D86SxY0bk-35" value="0...n" style="edgeLabel;html=1;align=center;verticalAlign=middle;resizable=0;points=[];" parent="MtZSlMMsmn_D86SxY0bk-34" vertex="1" connectable="0">
          <mxGeometry x="-0.7874" y="-1" relative="1" as="geometry">
            <mxPoint as="offset" />
          </mxGeometry>
        </mxCell>
        <mxCell id="MtZSlMMsmn_D86SxY0bk-36" value="1" style="edgeLabel;html=1;align=center;verticalAlign=middle;resizable=0;points=[];" parent="MtZSlMMsmn_D86SxY0bk-34" vertex="1" connectable="0">
          <mxGeometry x="0.6797" y="-2" relative="1" as="geometry">
            <mxPoint as="offset" />
          </mxGeometry>
        </mxCell>
        <mxCell id="MtZSlMMsmn_D86SxY0bk-33" value="&lt;p style=&quot;margin:0px;margin-top:4px;text-align:center;text-decoration:underline;&quot;&gt;&lt;b&gt;mch_merchant&lt;/b&gt;&lt;/p&gt;&lt;hr&gt;&lt;p style=&quot;margin:0px;margin-left:8px;&quot;&gt;field1 = value1&lt;br&gt;field2 = value2&lt;br&gt;field3 = value3&lt;/p&gt;" style="verticalAlign=top;align=left;overflow=fill;fontSize=12;fontFamily=Helvetica;html=1;fillColor=#D4E1F5;movable=1;resizable=1;rotatable=1;deletable=1;editable=1;connectable=1;container=0;" parent="1" vertex="1">
          <mxGeometry x="1420" y="-250" width="160" height="80" as="geometry" />
        </mxCell>
        <mxCell id="MtZSlMMsmn_D86SxY0bk-40" style="edgeStyle=orthogonalEdgeStyle;rounded=1;orthogonalLoop=1;jettySize=auto;html=1;entryX=1;entryY=0.5;entryDx=0;entryDy=0;startArrow=diamondThin;startFill=0;endArrow=open;endFill=0;startSize=14;endSize=12;" parent="1" source="MtZSlMMsmn_D86SxY0bk-37" target="MtZSlMMsmn_D86SxY0bk-33" edge="1">
          <mxGeometry relative="1" as="geometry" />
        </mxCell>
        <mxCell id="MtZSlMMsmn_D86SxY0bk-41" value="0...n" style="edgeLabel;html=1;align=center;verticalAlign=middle;resizable=0;points=[];" parent="MtZSlMMsmn_D86SxY0bk-40" vertex="1" connectable="0">
          <mxGeometry x="-0.6455" relative="1" as="geometry">
            <mxPoint as="offset" />
          </mxGeometry>
        </mxCell>
        <mxCell id="MtZSlMMsmn_D86SxY0bk-42" value="1" style="edgeLabel;html=1;align=center;verticalAlign=middle;resizable=0;points=[];" parent="MtZSlMMsmn_D86SxY0bk-40" vertex="1" connectable="0">
          <mxGeometry x="0.6045" relative="1" as="geometry">
            <mxPoint as="offset" />
          </mxGeometry>
        </mxCell>
        <mxCell id="MtZSlMMsmn_D86SxY0bk-37" value="&lt;p style=&quot;margin:0px;margin-top:4px;text-align:center;text-decoration:underline;&quot;&gt;&lt;b&gt;mch_store&lt;/b&gt;&lt;/p&gt;&lt;hr&gt;&lt;p style=&quot;margin:0px;margin-left:8px;&quot;&gt;field1 = value1&lt;br&gt;field2 = value2&lt;br&gt;field3 = value3&lt;/p&gt;" style="verticalAlign=top;align=left;overflow=fill;fontSize=12;fontFamily=Helvetica;html=1;fillColor=#D4E1F5;movable=1;resizable=1;rotatable=1;deletable=1;editable=1;connectable=1;container=0;" parent="1" vertex="1">
          <mxGeometry x="1700" y="-340" width="130" height="80" as="geometry" />
        </mxCell>
        <mxCell id="MtZSlMMsmn_D86SxY0bk-43" value="&lt;p style=&quot;margin:0px;margin-top:4px;text-align:center;text-decoration:underline;&quot;&gt;&lt;b&gt;sys_tenant_merchant_store_map&lt;/b&gt;&lt;/p&gt;&lt;hr&gt;&lt;p style=&quot;margin:0px;margin-left:8px;&quot;&gt;1:1&lt;/p&gt;&lt;p style=&quot;margin:0px;margin-left:8px;&quot;&gt;1:2&lt;/p&gt;&lt;p style=&quot;margin:0px;margin-left:8px;&quot;&gt;1;3&lt;/p&gt;&lt;p style=&quot;margin:0px;margin-left:8px;&quot;&gt;3:1&lt;/p&gt;&lt;p style=&quot;margin:0px;margin-left:8px;&quot;&gt;2:1&lt;/p&gt;&lt;p style=&quot;margin:0px;margin-left:8px;&quot;&gt;2;2&lt;/p&gt;&lt;p style=&quot;margin:0px;margin-left:8px;&quot;&gt;2-3&lt;/p&gt;" style="verticalAlign=top;align=left;overflow=fill;fontSize=12;fontFamily=Helvetica;html=1;fillColor=#D4E1F5;movable=1;resizable=1;rotatable=1;deletable=1;editable=1;connectable=1;container=0;" parent="1" vertex="1">
          <mxGeometry x="530" y="70" width="250" height="220" as="geometry" />
        </mxCell>
        <mxCell id="3f7_yQCQFoVN_8cQ-DYC-2" value="&lt;p style=&quot;margin:0px;margin-top:4px;text-align:center;text-decoration:underline;&quot;&gt;&lt;b&gt;prd_brand_basic&lt;/b&gt;&lt;/p&gt;&lt;hr&gt;&lt;p style=&quot;margin:0px;margin-left:8px;&quot;&gt;merchant_code:商户标识&lt;br&gt;code:品牌标识&lt;br&gt;name:品牌名称&lt;/p&gt;&lt;p style=&quot;margin:0px;margin-left:8px;&quot;&gt;icon:品牌Logo&lt;/p&gt;" style="verticalAlign=top;align=left;overflow=fill;fontSize=12;fontFamily=Helvetica;html=1;fillColor=#D4E1F5;movable=1;resizable=1;rotatable=1;deletable=1;editable=1;connectable=1;container=0;" parent="1" vertex="1">
          <mxGeometry x="1960" y="-340" width="130" height="110" as="geometry" />
        </mxCell>
        <mxCell id="3f7_yQCQFoVN_8cQ-DYC-3" value="&lt;p style=&quot;margin:0px;margin-top:4px;text-align:center;text-decoration:underline;&quot;&gt;&lt;b&gt;prd_attr&lt;/b&gt;&lt;/p&gt;&lt;hr&gt;&lt;p style=&quot;margin:0px;margin-left:8px;&quot;&gt;merchant_code:商户标识&lt;br&gt;code:属性标识&lt;br&gt;name:属性名称&lt;/p&gt;&lt;p style=&quot;margin:0px;margin-left:8px;&quot;&gt;types:属性类型[规格，售卖，套餐]&lt;/p&gt;" style="verticalAlign=top;align=left;overflow=fill;fontSize=12;fontFamily=Helvetica;html=1;fillColor=#D4E1F5;movable=1;resizable=1;rotatable=1;deletable=1;editable=1;connectable=1;container=0;" parent="1" vertex="1">
          <mxGeometry x="2520" y="80" width="270" height="110" as="geometry" />
        </mxCell>
        <mxCell id="1lYHxRS1IJhIk105t9A8-21" style="edgeStyle=orthogonalEdgeStyle;rounded=0;orthogonalLoop=1;jettySize=auto;html=1;entryX=0.5;entryY=0;entryDx=0;entryDy=0;" parent="1" source="3f7_yQCQFoVN_8cQ-DYC-4" target="3f7_yQCQFoVN_8cQ-DYC-3" edge="1">
          <mxGeometry relative="1" as="geometry">
            <Array as="points">
              <mxPoint x="2600" y="-20" />
              <mxPoint x="2640" y="-20" />
              <mxPoint x="2640" y="50" />
            </Array>
          </mxGeometry>
        </mxCell>
        <mxCell id="3f7_yQCQFoVN_8cQ-DYC-4" value="&lt;p style=&quot;margin:0px;margin-top:4px;text-align:center;text-decoration:underline;&quot;&gt;&lt;b&gt;prd_attr_value&lt;/b&gt;&lt;/p&gt;&lt;hr&gt;&lt;p style=&quot;margin:0px;margin-left:8px;&quot;&gt;merchant_code:商户标识&lt;br&gt;attr_code:属性标识&lt;br&gt;code:属性值标识&lt;/p&gt;&lt;p style=&quot;margin:0px;margin-left:8px;&quot;&gt;name:属性值名称&lt;/p&gt;&lt;p style=&quot;margin:0px;margin-left:8px;&quot;&gt;attach:备注&lt;/p&gt;" style="verticalAlign=top;align=left;overflow=fill;fontSize=12;fontFamily=Helvetica;html=1;fillColor=#D4E1F5;movable=1;resizable=1;rotatable=1;deletable=1;editable=1;connectable=1;container=0;" parent="1" vertex="1">
          <mxGeometry x="2410" y="-340" width="220" height="130" as="geometry" />
        </mxCell>
        <mxCell id="1lYHxRS1IJhIk105t9A8-12" style="edgeStyle=orthogonalEdgeStyle;rounded=0;orthogonalLoop=1;jettySize=auto;html=1;" parent="1" source="3f7_yQCQFoVN_8cQ-DYC-5" target="3f7_yQCQFoVN_8cQ-DYC-2" edge="1">
          <mxGeometry relative="1" as="geometry" />
        </mxCell>
        <mxCell id="3f7_yQCQFoVN_8cQ-DYC-5" value="&lt;p style=&quot;margin:0px;margin-top:4px;text-align:center;text-decoration:underline;&quot;&gt;&lt;b&gt;prd_spu_basic&lt;/b&gt;&lt;/p&gt;&lt;hr&gt;&lt;p style=&quot;margin:0px;margin-left:8px;&quot;&gt;merchant_code:商户标识&lt;br&gt;code:商品标识&lt;br&gt;name:名称&lt;/p&gt;&lt;p style=&quot;margin:0px;margin-left:8px;&quot;&gt;icon:图片&lt;/p&gt;&lt;p style=&quot;margin:0px;margin-left:8px;&quot;&gt;main_img:详情图片&lt;/p&gt;&lt;p style=&quot;margin:0px;margin-left:8px;&quot;&gt;detail:详情&lt;/p&gt;&lt;p style=&quot;margin:0px;margin-left:8px;&quot;&gt;types:类型[单规格、多规格、称重]&lt;/p&gt;" style="verticalAlign=top;align=left;overflow=fill;fontSize=12;fontFamily=Helvetica;html=1;fillColor=#D4E1F5;movable=1;resizable=1;rotatable=1;deletable=1;editable=1;connectable=1;container=0;" parent="1" vertex="1">
          <mxGeometry x="1860" y="-80" width="210" height="170" as="geometry" />
        </mxCell>
        <mxCell id="1lYHxRS1IJhIk105t9A8-13" style="edgeStyle=orthogonalEdgeStyle;rounded=0;orthogonalLoop=1;jettySize=auto;html=1;entryX=1;entryY=0.75;entryDx=0;entryDy=0;" parent="1" source="3f7_yQCQFoVN_8cQ-DYC-6" target="3f7_yQCQFoVN_8cQ-DYC-5" edge="1">
          <mxGeometry relative="1" as="geometry" />
        </mxCell>
        <mxCell id="3f7_yQCQFoVN_8cQ-DYC-6" value="&lt;p style=&quot;margin:0px;margin-top:4px;text-align:center;text-decoration:underline;&quot;&gt;&lt;b&gt;prd_sku&lt;/b&gt;&lt;/p&gt;&lt;hr&gt;&lt;p style=&quot;margin:0px;margin-left:8px;&quot;&gt;merchant_code:商户标识&lt;/p&gt;&lt;p style=&quot;margin:0px;margin-left:8px;&quot;&gt;code:商品标识&lt;/p&gt;&lt;p style=&quot;margin:0px;margin-left:8px;&quot;&gt;name:商品名称&lt;br&gt;mnemonic_code:助记码&lt;/p&gt;&lt;p style=&quot;margin:0px;margin-left:8px;&quot;&gt;bar_code:条码&lt;br&gt;cost_price:成本价&lt;/p&gt;&lt;p style=&quot;margin:0px;margin-left:8px;&quot;&gt;selling_price:销售价&lt;/p&gt;&lt;p style=&quot;margin:0px;margin-left:8px;&quot;&gt;marketing_price:市场价&lt;/p&gt;&lt;p style=&quot;margin:0px;margin-left:8px;&quot;&gt;attrs:属性&lt;/p&gt;&lt;p style=&quot;margin:0px;margin-left:8px;&quot;&gt;attach:备注&lt;/p&gt;&lt;p style=&quot;margin:0px;margin-left:8px;&quot;&gt;details:详情&lt;/p&gt;" style="verticalAlign=top;align=left;overflow=fill;fontSize=12;fontFamily=Helvetica;html=1;fillColor=#D4E1F5;movable=1;resizable=1;rotatable=1;deletable=1;editable=1;connectable=1;container=0;" parent="1" vertex="1">
          <mxGeometry x="2150" y="50" width="200" height="200" as="geometry" />
        </mxCell>
        <mxCell id="3f7_yQCQFoVN_8cQ-DYC-7" value="&lt;p style=&quot;margin:0px;margin-top:4px;text-align:center;text-decoration:underline;&quot;&gt;&lt;b&gt;prd_category&lt;/b&gt;&lt;/p&gt;&lt;hr&gt;&lt;p style=&quot;margin:0px;margin-left:8px;&quot;&gt;merchant_code:商户标识&lt;/p&gt;&lt;p style=&quot;margin:0px;margin-left:8px;&quot;&gt;store_code:门店标识&lt;/p&gt;&lt;p style=&quot;margin:0px;margin-left:8px;&quot;&gt;&lt;span style=&quot;background-color: initial;&quot;&gt;name:分类名称&lt;/span&gt;&lt;br&gt;&lt;/p&gt;&lt;p style=&quot;margin:0px;margin-left:8px;&quot;&gt;code:分类标识&lt;br&gt;icon:图标&lt;/p&gt;&lt;p style=&quot;margin:0px;margin-left:8px;&quot;&gt;label:标签&lt;br&gt;attach:描述&lt;/p&gt;" style="verticalAlign=top;align=left;overflow=fill;fontSize=12;fontFamily=Helvetica;html=1;fillColor=#D4E1F5;movable=1;resizable=1;rotatable=1;deletable=1;editable=1;connectable=1;container=0;" parent="1" vertex="1">
          <mxGeometry x="1390" y="460" width="180" height="140" as="geometry" />
        </mxCell>
        <mxCell id="3f7_yQCQFoVN_8cQ-DYC-8" value="&lt;p style=&quot;margin:0px;margin-top:4px;text-align:center;text-decoration:underline;&quot;&gt;&lt;b&gt;prd_brand&lt;/b&gt;&lt;/p&gt;&lt;hr&gt;&lt;p style=&quot;margin:0px;margin-left:8px;&quot;&gt;merchant_code&lt;br&gt;field2 = value2&lt;br&gt;field3 = value3&lt;/p&gt;" style="verticalAlign=top;align=left;overflow=fill;fontSize=12;fontFamily=Helvetica;html=1;fillColor=#D4E1F5;movable=1;resizable=1;rotatable=1;deletable=1;editable=1;connectable=1;container=0;" parent="1" vertex="1">
          <mxGeometry x="1580" y="690" width="130" height="80" as="geometry" />
        </mxCell>
        <mxCell id="3f7_yQCQFoVN_8cQ-DYC-9" value="&lt;p style=&quot;margin:0px;margin-top:4px;text-align:center;text-decoration:underline;&quot;&gt;&lt;b&gt;prd_attr&lt;/b&gt;&lt;/p&gt;&lt;hr&gt;&lt;p style=&quot;margin:0px;margin-left:8px;&quot;&gt;merchant_code&lt;br&gt;field2 = value2&lt;br&gt;field3 = value3&lt;/p&gt;" style="verticalAlign=top;align=left;overflow=fill;fontSize=12;fontFamily=Helvetica;html=1;fillColor=#D4E1F5;movable=1;resizable=1;rotatable=1;deletable=1;editable=1;connectable=1;container=0;" parent="1" vertex="1">
          <mxGeometry x="1760" y="700" width="130" height="80" as="geometry" />
        </mxCell>
        <mxCell id="3f7_yQCQFoVN_8cQ-DYC-10" value="&lt;p style=&quot;margin:0px;margin-top:4px;text-align:center;text-decoration:underline;&quot;&gt;&lt;b&gt;prd_attr_value&lt;/b&gt;&lt;/p&gt;&lt;hr&gt;&lt;p style=&quot;margin:0px;margin-left:8px;&quot;&gt;merchant_code&lt;br&gt;field2 = value2&lt;br&gt;field3 = value3&lt;/p&gt;" style="verticalAlign=top;align=left;overflow=fill;fontSize=12;fontFamily=Helvetica;html=1;fillColor=#D4E1F5;movable=1;resizable=1;rotatable=1;deletable=1;editable=1;connectable=1;container=0;" parent="1" vertex="1">
          <mxGeometry x="1910" y="700" width="130" height="80" as="geometry" />
        </mxCell>
        <mxCell id="3f7_yQCQFoVN_8cQ-DYC-11" value="&lt;p style=&quot;margin:0px;margin-top:4px;text-align:center;text-decoration:underline;&quot;&gt;&lt;b&gt;prd_spu&lt;/b&gt;&lt;/p&gt;&lt;hr&gt;&lt;p style=&quot;margin:0px;margin-left:8px;&quot;&gt;merchant_code&lt;br&gt;field2 = value2&lt;br&gt;field3 = value3&lt;/p&gt;" style="verticalAlign=top;align=left;overflow=fill;fontSize=12;fontFamily=Helvetica;html=1;fillColor=#D4E1F5;movable=1;resizable=1;rotatable=1;deletable=1;editable=1;connectable=1;container=0;" parent="1" vertex="1">
          <mxGeometry x="1380" y="755" width="130" height="80" as="geometry" />
        </mxCell>
        <mxCell id="3f7_yQCQFoVN_8cQ-DYC-12" value="&lt;p style=&quot;margin:0px;margin-top:4px;text-align:center;text-decoration:underline;&quot;&gt;&lt;b&gt;prd_sku&lt;/b&gt;&lt;/p&gt;&lt;hr&gt;&lt;p style=&quot;margin:0px;margin-left:8px;&quot;&gt;merchant_code&lt;br&gt;field2 = value2&lt;br&gt;field3 = value3&lt;/p&gt;" style="verticalAlign=top;align=left;overflow=fill;fontSize=12;fontFamily=Helvetica;html=1;fillColor=#D4E1F5;movable=1;resizable=1;rotatable=1;deletable=1;editable=1;connectable=1;container=0;" parent="1" vertex="1">
          <mxGeometry x="2220" y="700" width="130" height="80" as="geometry" />
        </mxCell>
        <mxCell id="3f7_yQCQFoVN_8cQ-DYC-13" value="&lt;p style=&quot;margin:0px;margin-top:4px;text-align:center;text-decoration:underline;&quot;&gt;&lt;b&gt;prd_spu_sku_template&lt;/b&gt;&lt;/p&gt;&lt;hr&gt;&lt;p style=&quot;margin:0px;margin-left:8px;&quot;&gt;merchant_code&lt;br&gt;field2 = value2&lt;br&gt;field3 = value3&lt;/p&gt;" style="verticalAlign=top;align=left;overflow=fill;fontSize=12;fontFamily=Helvetica;html=1;fillColor=#D4E1F5;movable=1;resizable=1;rotatable=1;deletable=1;editable=1;connectable=1;container=0;" parent="1" vertex="1">
          <mxGeometry x="1754" y="510" width="220" height="80" as="geometry" />
        </mxCell>
        <mxCell id="3f7_yQCQFoVN_8cQ-DYC-14" value="&lt;p style=&quot;margin:0px;margin-top:4px;text-align:center;text-decoration:underline;&quot;&gt;&lt;b&gt;prd_spu_category_map&lt;/b&gt;&lt;/p&gt;&lt;hr&gt;&lt;p style=&quot;margin:0px;margin-left:8px;&quot;&gt;merchant_code&lt;br&gt;field2 = value2&lt;br&gt;field3 = value3&lt;/p&gt;" style="verticalAlign=top;align=left;overflow=fill;fontSize=12;fontFamily=Helvetica;html=1;fillColor=#D4E1F5;movable=1;resizable=1;rotatable=1;deletable=1;editable=1;connectable=1;container=0;" parent="1" vertex="1">
          <mxGeometry x="1330" y="650" width="190" height="80" as="geometry" />
        </mxCell>
        <mxCell id="3f7_yQCQFoVN_8cQ-DYC-15" value="&lt;p style=&quot;margin:0px;margin-top:4px;text-align:center;text-decoration:underline;&quot;&gt;&lt;b&gt;prd_sku_stock&lt;/b&gt;&lt;/p&gt;&lt;hr&gt;&lt;p style=&quot;margin:0px;margin-left:8px;&quot;&gt;merchant_code&lt;br&gt;field2 = value2&lt;br&gt;field3 = value3&lt;/p&gt;" style="verticalAlign=top;align=left;overflow=fill;fontSize=12;fontFamily=Helvetica;html=1;fillColor=#D4E1F5;movable=1;resizable=1;rotatable=1;deletable=1;editable=1;connectable=1;container=0;" parent="1" vertex="1">
          <mxGeometry x="2230" y="835" width="130" height="80" as="geometry" />
        </mxCell>
        <mxCell id="3f7_yQCQFoVN_8cQ-DYC-25" style="edgeStyle=orthogonalEdgeStyle;rounded=0;orthogonalLoop=1;jettySize=auto;html=1;" parent="1" source="3f7_yQCQFoVN_8cQ-DYC-16" target="3f7_yQCQFoVN_8cQ-DYC-17" edge="1">
          <mxGeometry relative="1" as="geometry" />
        </mxCell>
        <mxCell id="3f7_yQCQFoVN_8cQ-DYC-26" style="edgeStyle=orthogonalEdgeStyle;rounded=0;orthogonalLoop=1;jettySize=auto;html=1;entryX=0.5;entryY=0;entryDx=0;entryDy=0;" parent="1" source="3f7_yQCQFoVN_8cQ-DYC-16" target="3f7_yQCQFoVN_8cQ-DYC-19" edge="1">
          <mxGeometry relative="1" as="geometry" />
        </mxCell>
        <mxCell id="3f7_yQCQFoVN_8cQ-DYC-27" style="edgeStyle=orthogonalEdgeStyle;rounded=0;orthogonalLoop=1;jettySize=auto;html=1;" parent="1" source="3f7_yQCQFoVN_8cQ-DYC-16" target="3f7_yQCQFoVN_8cQ-DYC-20" edge="1">
          <mxGeometry relative="1" as="geometry" />
        </mxCell>
        <mxCell id="3f7_yQCQFoVN_8cQ-DYC-28" style="edgeStyle=orthogonalEdgeStyle;rounded=0;orthogonalLoop=1;jettySize=auto;html=1;exitX=1;exitY=0.5;exitDx=0;exitDy=0;" parent="1" source="3f7_yQCQFoVN_8cQ-DYC-16" target="3f7_yQCQFoVN_8cQ-DYC-21" edge="1">
          <mxGeometry relative="1" as="geometry" />
        </mxCell>
        <mxCell id="3f7_yQCQFoVN_8cQ-DYC-16" value="&lt;p style=&quot;margin:0px;margin-top:4px;text-align:center;text-decoration:underline;&quot;&gt;&lt;b&gt;ord_root_order&lt;/b&gt;&lt;/p&gt;&lt;hr&gt;&lt;p style=&quot;margin:0px;margin-left:8px;&quot;&gt;merchant_code&lt;br&gt;field2 = value2&lt;br&gt;field3 = value3&lt;/p&gt;" style="verticalAlign=top;align=left;overflow=fill;fontSize=12;fontFamily=Helvetica;html=1;fillColor=#D4E1F5;movable=1;resizable=1;rotatable=1;deletable=1;editable=1;connectable=1;container=0;" parent="1" vertex="1">
          <mxGeometry x="2040" y="990" width="130" height="80" as="geometry" />
        </mxCell>
        <mxCell id="3f7_yQCQFoVN_8cQ-DYC-29" style="edgeStyle=orthogonalEdgeStyle;rounded=0;orthogonalLoop=1;jettySize=auto;html=1;entryX=0.5;entryY=0;entryDx=0;entryDy=0;" parent="1" source="3f7_yQCQFoVN_8cQ-DYC-17" target="3f7_yQCQFoVN_8cQ-DYC-18" edge="1">
          <mxGeometry relative="1" as="geometry" />
        </mxCell>
        <mxCell id="3f7_yQCQFoVN_8cQ-DYC-17" value="&lt;p style=&quot;margin:0px;margin-top:4px;text-align:center;text-decoration:underline;&quot;&gt;&lt;b&gt;ord_default_order&lt;/b&gt;&lt;/p&gt;&lt;hr&gt;&lt;p style=&quot;margin:0px;margin-left:8px;&quot;&gt;merchant_code&lt;br&gt;field2 = value2&lt;br&gt;field3 = value3&lt;/p&gt;" style="verticalAlign=top;align=left;overflow=fill;fontSize=12;fontFamily=Helvetica;html=1;fillColor=#D4E1F5;movable=1;resizable=1;rotatable=1;deletable=1;editable=1;connectable=1;container=0;" parent="1" vertex="1">
          <mxGeometry x="1800" y="1145" width="130" height="50" as="geometry" />
        </mxCell>
        <mxCell id="3f7_yQCQFoVN_8cQ-DYC-18" value="&lt;p style=&quot;margin:0px;margin-top:4px;text-align:center;text-decoration:underline;&quot;&gt;&lt;b&gt;ord_default_item&lt;/b&gt;&lt;/p&gt;&lt;hr&gt;&lt;p style=&quot;margin:0px;margin-left:8px;&quot;&gt;merchant_code&lt;br&gt;field2 = value2&lt;br&gt;field3 = value3&lt;/p&gt;" style="verticalAlign=top;align=left;overflow=fill;fontSize=12;fontFamily=Helvetica;html=1;fillColor=#D4E1F5;movable=1;resizable=1;rotatable=1;deletable=1;editable=1;connectable=1;container=0;" parent="1" vertex="1">
          <mxGeometry x="1800" y="1250" width="130" height="80" as="geometry" />
        </mxCell>
        <mxCell id="3f7_yQCQFoVN_8cQ-DYC-30" style="edgeStyle=orthogonalEdgeStyle;rounded=0;orthogonalLoop=1;jettySize=auto;html=1;" parent="1" source="3f7_yQCQFoVN_8cQ-DYC-19" target="3f7_yQCQFoVN_8cQ-DYC-22" edge="1">
          <mxGeometry relative="1" as="geometry" />
        </mxCell>
        <mxCell id="3f7_yQCQFoVN_8cQ-DYC-19" value="&lt;p style=&quot;margin:0px;margin-top:4px;text-align:center;text-decoration:underline;&quot;&gt;&lt;b&gt;ord_takeout_order&lt;/b&gt;&lt;/p&gt;&lt;hr&gt;&lt;p style=&quot;margin:0px;margin-left:8px;&quot;&gt;merchant_code&lt;br&gt;field2 = value2&lt;br&gt;field3 = value3&lt;/p&gt;" style="verticalAlign=top;align=left;overflow=fill;fontSize=12;fontFamily=Helvetica;html=1;fillColor=#D4E1F5;movable=1;resizable=1;rotatable=1;deletable=1;editable=1;connectable=1;container=0;" parent="1" vertex="1">
          <mxGeometry x="1950" y="1130" width="130" height="80" as="geometry" />
        </mxCell>
        <mxCell id="3f7_yQCQFoVN_8cQ-DYC-31" style="edgeStyle=orthogonalEdgeStyle;rounded=0;orthogonalLoop=1;jettySize=auto;html=1;entryX=0.5;entryY=0;entryDx=0;entryDy=0;" parent="1" source="3f7_yQCQFoVN_8cQ-DYC-20" target="3f7_yQCQFoVN_8cQ-DYC-23" edge="1">
          <mxGeometry relative="1" as="geometry" />
        </mxCell>
        <mxCell id="3f7_yQCQFoVN_8cQ-DYC-20" value="&lt;p style=&quot;margin:0px;margin-top:4px;text-align:center;text-decoration:underline;&quot;&gt;&lt;b&gt;ord_takeout_order&lt;/b&gt;&lt;/p&gt;&lt;hr&gt;&lt;p style=&quot;margin:0px;margin-left:8px;&quot;&gt;merchant_code&lt;br&gt;field2 = value2&lt;br&gt;field3 = value3&lt;/p&gt;" style="verticalAlign=top;align=left;overflow=fill;fontSize=12;fontFamily=Helvetica;html=1;fillColor=#D4E1F5;movable=1;resizable=1;rotatable=1;deletable=1;editable=1;connectable=1;container=0;" parent="1" vertex="1">
          <mxGeometry x="2110" y="1130" width="130" height="80" as="geometry" />
        </mxCell>
        <mxCell id="3f7_yQCQFoVN_8cQ-DYC-32" value="" style="edgeStyle=orthogonalEdgeStyle;rounded=0;orthogonalLoop=1;jettySize=auto;html=1;" parent="1" source="3f7_yQCQFoVN_8cQ-DYC-21" target="3f7_yQCQFoVN_8cQ-DYC-24" edge="1">
          <mxGeometry relative="1" as="geometry" />
        </mxCell>
        <mxCell id="3f7_yQCQFoVN_8cQ-DYC-21" value="&lt;p style=&quot;margin:0px;margin-top:4px;text-align:center;text-decoration:underline;&quot;&gt;&lt;b&gt;ord_eating_order&lt;/b&gt;&lt;/p&gt;&lt;hr&gt;&lt;p style=&quot;margin:0px;margin-left:8px;&quot;&gt;merchant_code&lt;br&gt;field2 = value2&lt;br&gt;field3 = value3&lt;/p&gt;" style="verticalAlign=top;align=left;overflow=fill;fontSize=12;fontFamily=Helvetica;html=1;fillColor=#D4E1F5;movable=1;resizable=1;rotatable=1;deletable=1;editable=1;connectable=1;container=0;" parent="1" vertex="1">
          <mxGeometry x="2260" y="1130" width="130" height="80" as="geometry" />
        </mxCell>
        <mxCell id="3f7_yQCQFoVN_8cQ-DYC-22" value="&lt;p style=&quot;margin:0px;margin-top:4px;text-align:center;text-decoration:underline;&quot;&gt;&lt;b&gt;ord_takeout_order&lt;/b&gt;&lt;/p&gt;&lt;hr&gt;&lt;p style=&quot;margin:0px;margin-left:8px;&quot;&gt;merchant_code&lt;br&gt;field2 = value2&lt;br&gt;field3 = value3&lt;/p&gt;" style="verticalAlign=top;align=left;overflow=fill;fontSize=12;fontFamily=Helvetica;html=1;fillColor=#D4E1F5;movable=1;resizable=1;rotatable=1;deletable=1;editable=1;connectable=1;container=0;" parent="1" vertex="1">
          <mxGeometry x="1960" y="1250" width="130" height="80" as="geometry" />
        </mxCell>
        <mxCell id="3f7_yQCQFoVN_8cQ-DYC-23" value="&lt;p style=&quot;margin:0px;margin-top:4px;text-align:center;text-decoration:underline;&quot;&gt;&lt;b&gt;ord_takeout_order&lt;/b&gt;&lt;/p&gt;&lt;hr&gt;&lt;p style=&quot;margin:0px;margin-left:8px;&quot;&gt;merchant_code&lt;br&gt;field2 = value2&lt;br&gt;field3 = value3&lt;/p&gt;" style="verticalAlign=top;align=left;overflow=fill;fontSize=12;fontFamily=Helvetica;html=1;fillColor=#D4E1F5;movable=1;resizable=1;rotatable=1;deletable=1;editable=1;connectable=1;container=0;" parent="1" vertex="1">
          <mxGeometry x="2110" y="1250" width="130" height="80" as="geometry" />
        </mxCell>
        <mxCell id="3f7_yQCQFoVN_8cQ-DYC-24" value="&lt;p style=&quot;margin:0px;margin-top:4px;text-align:center;text-decoration:underline;&quot;&gt;&lt;b&gt;ord_eating_order&lt;/b&gt;&lt;/p&gt;&lt;hr&gt;&lt;p style=&quot;margin:0px;margin-left:8px;&quot;&gt;merchant_code&lt;br&gt;field2 = value2&lt;br&gt;field3 = value3&lt;/p&gt;" style="verticalAlign=top;align=left;overflow=fill;fontSize=12;fontFamily=Helvetica;html=1;fillColor=#D4E1F5;movable=1;resizable=1;rotatable=1;deletable=1;editable=1;connectable=1;container=0;" parent="1" vertex="1">
          <mxGeometry x="2260" y="1250" width="130" height="80" as="geometry" />
        </mxCell>
        <mxCell id="3f7_yQCQFoVN_8cQ-DYC-33" value="&lt;p style=&quot;margin:0px;margin-top:4px;text-align:center;text-decoration:underline;&quot;&gt;&lt;b&gt;crt_charge&lt;/b&gt;&lt;/p&gt;&lt;p style=&quot;margin:0px;margin-top:4px;text-align:center;text-decoration:underline;&quot;&gt;&lt;b&gt;购物车&lt;/b&gt;&lt;/p&gt;&lt;hr&gt;&lt;p style=&quot;margin:0px;margin-left:8px;&quot;&gt;merchant_code&lt;br&gt;field2 = value2&lt;br&gt;field3 = value3&lt;/p&gt;" style="verticalAlign=top;align=left;overflow=fill;fontSize=12;fontFamily=Helvetica;html=1;fillColor=#D4E1F5;movable=1;resizable=1;rotatable=1;deletable=1;editable=1;connectable=1;container=0;" parent="1" vertex="1">
          <mxGeometry x="1524" y="1020" width="130" height="80" as="geometry" />
        </mxCell>
        <mxCell id="3f7_yQCQFoVN_8cQ-DYC-34" value="&lt;p style=&quot;margin:0px;margin-top:4px;text-align:center;text-decoration:underline;&quot;&gt;&lt;b&gt;ord_payment_log&lt;/b&gt;&lt;/p&gt;&lt;hr&gt;&lt;p style=&quot;margin:0px;margin-left:8px;&quot;&gt;merchant_code&lt;br&gt;field2 = value2&lt;br&gt;field3 = value3&lt;/p&gt;" style="verticalAlign=top;align=left;overflow=fill;fontSize=12;fontFamily=Helvetica;html=1;fillColor=#D4E1F5;movable=1;resizable=1;rotatable=1;deletable=1;editable=1;connectable=1;container=0;" parent="1" vertex="1">
          <mxGeometry x="2540" y="1115" width="130" height="80" as="geometry" />
        </mxCell>
        <mxCell id="1lYHxRS1IJhIk105t9A8-9" style="edgeStyle=orthogonalEdgeStyle;rounded=0;orthogonalLoop=1;jettySize=auto;html=1;exitX=0.5;exitY=0;exitDx=0;exitDy=0;" parent="1" source="1lYHxRS1IJhIk105t9A8-1" target="3f7_yQCQFoVN_8cQ-DYC-5" edge="1">
          <mxGeometry relative="1" as="geometry" />
        </mxCell>
        <mxCell id="1lYHxRS1IJhIk105t9A8-10" value="" style="edgeStyle=orthogonalEdgeStyle;rounded=0;orthogonalLoop=1;jettySize=auto;html=1;" parent="1" source="1lYHxRS1IJhIk105t9A8-1" target="1lYHxRS1IJhIk105t9A8-5" edge="1">
          <mxGeometry relative="1" as="geometry" />
        </mxCell>
        <mxCell id="1lYHxRS1IJhIk105t9A8-1" value="&lt;p style=&quot;margin:0px;margin-top:4px;text-align:center;text-decoration:underline;&quot;&gt;&lt;b&gt;prd_spu_category_basic_map&lt;/b&gt;&lt;/p&gt;&lt;p style=&quot;margin:0px;margin-top:4px;text-align:center;text-decoration:underline;&quot;&gt;&lt;b&gt;商品分类（1对N）&lt;/b&gt;&lt;/p&gt;&lt;hr&gt;&lt;p style=&quot;margin:0px;margin-left:8px;&quot;&gt;merchant_code:商户标识&lt;/p&gt;&lt;p style=&quot;margin:0px;margin-left:8px;&quot;&gt;spu_code:SPU标识&lt;/p&gt;&lt;p style=&quot;margin:0px;margin-left:8px;&quot;&gt;category_code:分类标识&lt;br&gt;&lt;/p&gt;" style="verticalAlign=top;align=left;overflow=fill;fontSize=12;fontFamily=Helvetica;html=1;fillColor=#D4E1F5;movable=1;resizable=1;rotatable=1;deletable=1;editable=1;connectable=1;container=0;" parent="1" vertex="1">
          <mxGeometry x="1860" y="130" width="210" height="100" as="geometry" />
        </mxCell>
        <mxCell id="1lYHxRS1IJhIk105t9A8-5" value="&lt;p style=&quot;margin:0px;margin-top:4px;text-align:center;text-decoration:underline;&quot;&gt;&lt;b&gt;prd_category_basic&lt;/b&gt;&lt;/p&gt;&lt;hr&gt;&lt;p style=&quot;margin:0px;margin-left:8px;&quot;&gt;merchant_code:商户号&lt;/p&gt;&lt;p style=&quot;margin:0px;margin-left:8px;&quot;&gt;&lt;span style=&quot;background-color: initial;&quot;&gt;name:分类名称&lt;/span&gt;&lt;br&gt;&lt;/p&gt;&lt;p style=&quot;margin:0px;margin-left:8px;&quot;&gt;code:分类标识&lt;br&gt;icon:图标&lt;/p&gt;&lt;p style=&quot;margin:0px;margin-left:8px;&quot;&gt;label:标签&lt;br&gt;attach:描述&lt;/p&gt;" style="verticalAlign=top;align=left;overflow=fill;fontSize=12;fontFamily=Helvetica;html=1;fillColor=#D4E1F5;movable=1;resizable=1;rotatable=1;deletable=1;editable=1;connectable=1;container=0;" parent="1" vertex="1">
          <mxGeometry x="1860" y="280" width="210" height="150" as="geometry" />
        </mxCell>
        <mxCell id="1lYHxRS1IJhIk105t9A8-23" style="edgeStyle=orthogonalEdgeStyle;rounded=0;orthogonalLoop=1;jettySize=auto;html=1;" parent="1" source="1lYHxRS1IJhIk105t9A8-6" target="1lYHxRS1IJhIk105t9A8-22" edge="1">
          <mxGeometry relative="1" as="geometry" />
        </mxCell>
        <mxCell id="1lYHxRS1IJhIk105t9A8-6" value="&lt;p style=&quot;margin:0px;margin-top:4px;text-align:center;text-decoration:underline;&quot;&gt;&lt;b&gt;prd_channel_basic&lt;/b&gt;&lt;/p&gt;&lt;hr&gt;&lt;p style=&quot;margin:0px;margin-left:8px;&quot;&gt;merchant_code:&lt;br&gt;code:标识&lt;br&gt;name:名称&lt;/p&gt;" style="verticalAlign=top;align=left;overflow=fill;fontSize=12;fontFamily=Helvetica;html=1;fillColor=#D4E1F5;movable=1;resizable=1;rotatable=1;deletable=1;editable=1;connectable=1;container=0;" parent="1" vertex="1">
          <mxGeometry x="2480" y="322.5" width="130" height="80" as="geometry" />
        </mxCell>
        <mxCell id="1lYHxRS1IJhIk105t9A8-8" style="edgeStyle=orthogonalEdgeStyle;rounded=0;orthogonalLoop=1;jettySize=auto;html=1;exitX=0;exitY=0.5;exitDx=0;exitDy=0;entryX=1;entryY=0.5;entryDx=0;entryDy=0;" parent="1" source="1lYHxRS1IJhIk105t9A8-7" target="1lYHxRS1IJhIk105t9A8-5" edge="1">
          <mxGeometry relative="1" as="geometry" />
        </mxCell>
        <mxCell id="1lYHxRS1IJhIk105t9A8-11" style="edgeStyle=orthogonalEdgeStyle;rounded=0;orthogonalLoop=1;jettySize=auto;html=1;exitX=1;exitY=0.5;exitDx=0;exitDy=0;entryX=0;entryY=0.5;entryDx=0;entryDy=0;" parent="1" source="1lYHxRS1IJhIk105t9A8-7" target="1lYHxRS1IJhIk105t9A8-6" edge="1">
          <mxGeometry relative="1" as="geometry" />
        </mxCell>
        <mxCell id="1lYHxRS1IJhIk105t9A8-7" value="&lt;p style=&quot;margin:0px;margin-top:4px;text-align:center;text-decoration:underline;&quot;&gt;&lt;b&gt;prd_category_channel_basic&lt;/b&gt;&lt;/p&gt;&lt;hr&gt;&lt;p style=&quot;margin:0px;margin-left:8px;&quot;&gt;merchant_code:商户标识&lt;br&gt;category_code:分类&lt;br&gt;channel_code:渠道&lt;/p&gt;" style="verticalAlign=top;align=left;overflow=fill;fontSize=12;fontFamily=Helvetica;html=1;fillColor=#D4E1F5;movable=1;resizable=1;rotatable=1;deletable=1;editable=1;connectable=1;container=0;" parent="1" vertex="1">
          <mxGeometry x="2120" y="320" width="220" height="85" as="geometry" />
        </mxCell>
        <mxCell id="1lYHxRS1IJhIk105t9A8-15" style="edgeStyle=orthogonalEdgeStyle;rounded=0;orthogonalLoop=1;jettySize=auto;html=1;entryX=0;entryY=0.75;entryDx=0;entryDy=0;" parent="1" source="1lYHxRS1IJhIk105t9A8-14" target="3f7_yQCQFoVN_8cQ-DYC-3" edge="1">
          <mxGeometry relative="1" as="geometry" />
        </mxCell>
        <mxCell id="1lYHxRS1IJhIk105t9A8-16" style="edgeStyle=orthogonalEdgeStyle;rounded=0;orthogonalLoop=1;jettySize=auto;html=1;" parent="1" source="1lYHxRS1IJhIk105t9A8-14" target="3f7_yQCQFoVN_8cQ-DYC-4" edge="1">
          <mxGeometry relative="1" as="geometry" />
        </mxCell>
        <mxCell id="1lYHxRS1IJhIk105t9A8-17" style="edgeStyle=orthogonalEdgeStyle;rounded=0;orthogonalLoop=1;jettySize=auto;html=1;entryX=1;entryY=0.75;entryDx=0;entryDy=0;" parent="1" source="1lYHxRS1IJhIk105t9A8-14" target="3f7_yQCQFoVN_8cQ-DYC-6" edge="1">
          <mxGeometry relative="1" as="geometry" />
        </mxCell>
        <mxCell id="1lYHxRS1IJhIk105t9A8-20" style="edgeStyle=orthogonalEdgeStyle;rounded=0;orthogonalLoop=1;jettySize=auto;html=1;" parent="1" source="1lYHxRS1IJhIk105t9A8-14" target="3f7_yQCQFoVN_8cQ-DYC-5" edge="1">
          <mxGeometry relative="1" as="geometry" />
        </mxCell>
        <mxCell id="1lYHxRS1IJhIk105t9A8-14" value="&lt;p style=&quot;margin:0px;margin-top:4px;text-align:center;text-decoration:underline;&quot;&gt;&lt;b&gt;prd_spu_sku_attr_map&lt;/b&gt;&lt;/p&gt;&lt;hr&gt;&lt;p style=&quot;margin:0px;margin-left:8px;&quot;&gt;merchant_code:商户标识&lt;br&gt;spu_code:商品标识&lt;br&gt;sku_code:商品标识&lt;/p&gt;&lt;p style=&quot;margin:0px;margin-left:8px;&quot;&gt;attr_code:属性标识&lt;/p&gt;&lt;p style=&quot;margin:0px;margin-left:8px;&quot;&gt;attr_name:属性名称&lt;/p&gt;&lt;p style=&quot;margin:0px;margin-left:8px;&quot;&gt;attr_value_code:属性值标识&lt;/p&gt;&lt;p style=&quot;margin:0px;margin-left:8px;&quot;&gt;attr_value_name:属性值名称&lt;/p&gt;&lt;p style=&quot;margin:0px;margin-left:8px;&quot;&gt;&lt;br&gt;&lt;/p&gt;" style="verticalAlign=top;align=left;overflow=fill;fontSize=12;fontFamily=Helvetica;html=1;fillColor=#D4E1F5;movable=1;resizable=1;rotatable=1;deletable=1;editable=1;connectable=1;container=0;" parent="1" vertex="1">
          <mxGeometry x="2190" y="-240" width="170" height="180" as="geometry" />
        </mxCell>
        <mxCell id="1lYHxRS1IJhIk105t9A8-22" value="&lt;p style=&quot;margin:0px;margin-top:4px;text-align:center;text-decoration:underline;&quot;&gt;&lt;b&gt;prd_pricing_structure&lt;/b&gt;&lt;/p&gt;&lt;p style=&quot;margin:0px;margin-top:4px;text-align:center;text-decoration:underline;&quot;&gt;&lt;b&gt;（价格体系）&lt;/b&gt;&lt;/p&gt;&lt;hr&gt;&lt;p style=&quot;margin:0px;margin-left:8px;&quot;&gt;merchant_code:&lt;br&gt;channel_code:渠道标识&lt;br&gt;sku_code:商品名称&lt;/p&gt;" style="verticalAlign=top;align=left;overflow=fill;fontSize=12;fontFamily=Helvetica;html=1;fillColor=#D4E1F5;movable=1;resizable=1;rotatable=1;deletable=1;editable=1;connectable=1;container=0;" parent="1" vertex="1">
          <mxGeometry x="2730" y="300" width="160" height="150" as="geometry" />
        </mxCell>
        <mxCell id="NZiHGBPmWhvqg9JIHpQ4-1" value="收单&lt;br&gt;终端号" style="text;html=1;strokeColor=none;fillColor=none;align=center;verticalAlign=middle;whiteSpace=wrap;rounded=0;" parent="1" vertex="1">
          <mxGeometry x="600" y="640" width="60" height="30" as="geometry" />
        </mxCell>
        <mxCell id="er6fUpslzvn8Oprez6U3-4" style="edgeStyle=orthogonalEdgeStyle;rounded=0;orthogonalLoop=1;jettySize=auto;html=1;entryX=0.358;entryY=-0.029;entryDx=0;entryDy=0;entryPerimeter=0;endArrow=diamondThin;endFill=0;" edge="1" parent="1" source="er6fUpslzvn8Oprez6U3-1" target="cSz9DEjXfmsqPm38V2Ll-1">
          <mxGeometry relative="1" as="geometry">
            <mxPoint x="1020" y="-100" as="targetPoint" />
          </mxGeometry>
        </mxCell>
        <mxCell id="er6fUpslzvn8Oprez6U3-6" style="edgeStyle=orthogonalEdgeStyle;rounded=0;orthogonalLoop=1;jettySize=auto;html=1;entryX=0.5;entryY=1;entryDx=0;entryDy=0;endArrow=diamondThin;endFill=0;" edge="1" parent="1" source="er6fUpslzvn8Oprez6U3-1" target="er6fUpslzvn8Oprez6U3-5">
          <mxGeometry relative="1" as="geometry" />
        </mxCell>
        <mxCell id="er6fUpslzvn8Oprez6U3-1" value="&lt;p style=&quot;margin:0px;margin-top:4px;text-align:center;text-decoration:underline;&quot;&gt;&lt;b style=&quot;background-color: initial;&quot;&gt;sys_organization&lt;/b&gt;&lt;/p&gt;&lt;hr&gt;&lt;p style=&quot;margin:0px;margin-left:8px;&quot;&gt;tenant_code&lt;/p&gt;&lt;p style=&quot;margin:0px;margin-left:8px;&quot;&gt;name&lt;/p&gt;&lt;p style=&quot;margin:0px;margin-left:8px;&quot;&gt;&lt;br&gt;&lt;/p&gt;" style="verticalAlign=top;align=left;overflow=fill;fontSize=12;fontFamily=Helvetica;html=1;fillColor=#D4E1F5;movable=1;resizable=1;rotatable=1;deletable=1;editable=1;connectable=1;container=0;" vertex="1" parent="1">
          <mxGeometry x="690" y="-300" width="205" height="110" as="geometry" />
        </mxCell>
        <mxCell id="er6fUpslzvn8Oprez6U3-5" value="&lt;p style=&quot;margin:0px;margin-top:4px;text-align:center;text-decoration:underline;&quot;&gt;&lt;b style=&quot;background-color: initial;&quot;&gt;sys_organization_merchant_store_map&lt;/b&gt;&lt;/p&gt;&lt;hr&gt;&lt;p style=&quot;margin:0px;margin-left:8px;&quot;&gt;tenant_code&lt;/p&gt;&lt;p style=&quot;margin:0px;margin-left:8px;&quot;&gt;name&lt;/p&gt;&lt;p style=&quot;margin:0px;margin-left:8px;&quot;&gt;&lt;br&gt;&lt;/p&gt;" style="verticalAlign=top;align=left;overflow=fill;fontSize=12;fontFamily=Helvetica;html=1;fillColor=#D4E1F5;movable=1;resizable=1;rotatable=1;deletable=1;editable=1;connectable=1;container=0;" vertex="1" parent="1">
          <mxGeometry x="680" y="-530" width="250" height="110" as="geometry" />
        </mxCell>
      </root>
    </mxGraphModel>
  </diagram>
  <diagram id="Wjf_bwxblgU66Nt68g1L" name="第 3 页">
    <mxGraphModel dx="1656" dy="1061" grid="1" gridSize="10" guides="1" tooltips="1" connect="1" arrows="1" fold="1" page="1" pageScale="1" pageWidth="1169" pageHeight="1654" math="0" shadow="0">
      <root>
        <mxCell id="0" />
        <mxCell id="1" parent="0" />
        <mxCell id="5slSccRK8mR4ntXYS9uh-3" style="edgeStyle=orthogonalEdgeStyle;rounded=0;orthogonalLoop=1;jettySize=auto;html=1;" parent="1" source="5slSccRK8mR4ntXYS9uh-1" target="5slSccRK8mR4ntXYS9uh-2" edge="1">
          <mxGeometry relative="1" as="geometry" />
        </mxCell>
        <mxCell id="5slSccRK8mR4ntXYS9uh-1" value="邮件代付&lt;br&gt;1. 入自己的表1千万&lt;br&gt;" style="rounded=1;whiteSpace=wrap;html=1;" parent="1" vertex="1">
          <mxGeometry x="80" y="90" width="120" height="60" as="geometry" />
        </mxCell>
        <mxCell id="5slSccRK8mR4ntXYS9uh-2" value="交易服务&lt;br&gt;charge（1—9999&lt;br&gt;&amp;nbsp; &amp;nbsp;2—10000" style="rounded=1;whiteSpace=wrap;html=1;" parent="1" vertex="1">
          <mxGeometry x="150" y="510" width="120" height="60" as="geometry" />
        </mxCell>
        <mxCell id="5slSccRK8mR4ntXYS9uh-5" style="edgeStyle=orthogonalEdgeStyle;rounded=0;orthogonalLoop=1;jettySize=auto;html=1;entryX=1;entryY=0.75;entryDx=0;entryDy=0;" parent="1" source="5slSccRK8mR4ntXYS9uh-4" target="5slSccRK8mR4ntXYS9uh-2" edge="1">
          <mxGeometry relative="1" as="geometry" />
        </mxCell>
        <mxCell id="5slSccRK8mR4ntXYS9uh-4" value="富国BFF" style="rounded=1;whiteSpace=wrap;html=1;" parent="1" vertex="1">
          <mxGeometry x="310" y="30" width="120" height="60" as="geometry" />
        </mxCell>
        <mxCell id="5slSccRK8mR4ntXYS9uh-8" style="edgeStyle=orthogonalEdgeStyle;rounded=0;orthogonalLoop=1;jettySize=auto;html=1;" parent="1" source="5slSccRK8mR4ntXYS9uh-6" target="5slSccRK8mR4ntXYS9uh-2" edge="1">
          <mxGeometry relative="1" as="geometry">
            <mxPoint x="610" y="360" as="targetPoint" />
            <Array as="points">
              <mxPoint x="610" y="420" />
            </Array>
          </mxGeometry>
        </mxCell>
        <mxCell id="5slSccRK8mR4ntXYS9uh-6" value="我们自己的API标准" style="rounded=1;whiteSpace=wrap;html=1;" parent="1" vertex="1">
          <mxGeometry x="550" y="10" width="120" height="60" as="geometry" />
        </mxCell>
        <mxCell id="5slSccRK8mR4ntXYS9uh-10" style="edgeStyle=orthogonalEdgeStyle;rounded=0;orthogonalLoop=1;jettySize=auto;html=1;entryX=0.5;entryY=1;entryDx=0;entryDy=0;" parent="1" source="5slSccRK8mR4ntXYS9uh-9" target="5slSccRK8mR4ntXYS9uh-2" edge="1">
          <mxGeometry relative="1" as="geometry" />
        </mxCell>
        <mxCell id="5slSccRK8mR4ntXYS9uh-9" value="蚂蚁的标准&lt;br&gt;1. 入自己的log" style="rounded=1;whiteSpace=wrap;html=1;" parent="1" vertex="1">
          <mxGeometry x="1100" y="40" width="120" height="60" as="geometry" />
        </mxCell>
        <mxCell id="5slSccRK8mR4ntXYS9uh-11" value="银联代付&lt;br&gt;" style="rounded=0;whiteSpace=wrap;html=1;" parent="1" vertex="1">
          <mxGeometry x="180" y="770" width="120" height="60" as="geometry" />
        </mxCell>
        <mxCell id="5slSccRK8mR4ntXYS9uh-12" value="银联代付&lt;br&gt;" style="rounded=0;whiteSpace=wrap;html=1;" parent="1" vertex="1">
          <mxGeometry x="340" y="780" width="120" height="60" as="geometry" />
        </mxCell>
        <mxCell id="5slSccRK8mR4ntXYS9uh-13" value="银联代付&lt;br&gt;" style="rounded=0;whiteSpace=wrap;html=1;" parent="1" vertex="1">
          <mxGeometry x="490" y="790" width="120" height="60" as="geometry" />
        </mxCell>
        <mxCell id="5slSccRK8mR4ntXYS9uh-16" style="edgeStyle=orthogonalEdgeStyle;rounded=0;orthogonalLoop=1;jettySize=auto;html=1;" parent="1" source="5slSccRK8mR4ntXYS9uh-15" target="5slSccRK8mR4ntXYS9uh-11" edge="1">
          <mxGeometry relative="1" as="geometry">
            <Array as="points">
              <mxPoint x="550" y="740" />
              <mxPoint x="240" y="740" />
            </Array>
          </mxGeometry>
        </mxCell>
        <mxCell id="5slSccRK8mR4ntXYS9uh-15" value="mq" style="rounded=0;whiteSpace=wrap;html=1;" parent="1" vertex="1">
          <mxGeometry x="150" y="650" width="670" height="60" as="geometry" />
        </mxCell>
        <mxCell id="5slSccRK8mR4ntXYS9uh-17" value="结算&lt;br&gt;" style="rounded=0;whiteSpace=wrap;html=1;" parent="1" vertex="1">
          <mxGeometry x="1100" y="510" width="120" height="60" as="geometry" />
        </mxCell>
        <mxCell id="5slSccRK8mR4ntXYS9uh-18" value="dashbord" style="rounded=0;whiteSpace=wrap;html=1;" parent="1" vertex="1">
          <mxGeometry x="1100" y="660" width="120" height="60" as="geometry" />
        </mxCell>
      </root>
    </mxGraphModel>
  </diagram>
  <diagram id="97fH6V7-sPI3czxXvddr" name="支付">
    <mxGraphModel dx="1380" dy="789" grid="1" gridSize="10" guides="1" tooltips="1" connect="1" arrows="1" fold="1" page="1" pageScale="1" pageWidth="1169" pageHeight="1654" math="0" shadow="0">
      <root>
        <mxCell id="0" />
        <mxCell id="1" parent="0" />
        <mxCell id="NHE60Ce-i3VNeDLjx6jV-66" value="" style="rounded=0;whiteSpace=wrap;html=1;" vertex="1" parent="1">
          <mxGeometry x="50" y="90" width="1160" height="160" as="geometry" />
        </mxCell>
        <mxCell id="NHE60Ce-i3VNeDLjx6jV-61" value="" style="rounded=0;whiteSpace=wrap;html=1;" vertex="1" parent="1">
          <mxGeometry x="50" y="290" width="1150" height="240" as="geometry" />
        </mxCell>
        <mxCell id="NHE60Ce-i3VNeDLjx6jV-23" style="edgeStyle=orthogonalEdgeStyle;rounded=0;orthogonalLoop=1;jettySize=auto;html=1;entryX=0.5;entryY=0;entryDx=0;entryDy=0;" edge="1" parent="1" source="NHE60Ce-i3VNeDLjx6jV-1" target="NHE60Ce-i3VNeDLjx6jV-8">
          <mxGeometry relative="1" as="geometry" />
        </mxCell>
        <mxCell id="NHE60Ce-i3VNeDLjx6jV-87" value="pay.xft.xin/a" style="edgeLabel;html=1;align=center;verticalAlign=middle;resizable=0;points=[];" vertex="1" connectable="0" parent="NHE60Ce-i3VNeDLjx6jV-23">
          <mxGeometry x="-0.5746" y="-4" relative="1" as="geometry">
            <mxPoint as="offset" />
          </mxGeometry>
        </mxCell>
        <mxCell id="NHE60Ce-i3VNeDLjx6jV-1" value="插件" style="rounded=1;whiteSpace=wrap;html=1;" vertex="1" parent="1">
          <mxGeometry x="150" y="20" width="60" height="30" as="geometry" />
        </mxCell>
        <mxCell id="NHE60Ce-i3VNeDLjx6jV-33" style="edgeStyle=orthogonalEdgeStyle;rounded=0;orthogonalLoop=1;jettySize=auto;html=1;exitX=0.408;exitY=0.992;exitDx=0;exitDy=0;exitPerimeter=0;" edge="1" parent="1" source="NHE60Ce-i3VNeDLjx6jV-47" target="NHE60Ce-i3VNeDLjx6jV-26">
          <mxGeometry relative="1" as="geometry" />
        </mxCell>
        <mxCell id="NHE60Ce-i3VNeDLjx6jV-34" style="edgeStyle=orthogonalEdgeStyle;rounded=0;orthogonalLoop=1;jettySize=auto;html=1;startArrow=none;" edge="1" parent="1" source="NHE60Ce-i3VNeDLjx6jV-47" target="NHE60Ce-i3VNeDLjx6jV-29">
          <mxGeometry relative="1" as="geometry" />
        </mxCell>
        <mxCell id="NHE60Ce-i3VNeDLjx6jV-49" value="" style="edgeStyle=orthogonalEdgeStyle;rounded=0;orthogonalLoop=1;jettySize=auto;html=1;" edge="1" parent="1" source="NHE60Ce-i3VNeDLjx6jV-4" target="NHE60Ce-i3VNeDLjx6jV-47">
          <mxGeometry relative="1" as="geometry" />
        </mxCell>
        <mxCell id="NHE60Ce-i3VNeDLjx6jV-88" value="pay.xft.xin/b" style="edgeLabel;html=1;align=center;verticalAlign=middle;resizable=0;points=[];" vertex="1" connectable="0" parent="NHE60Ce-i3VNeDLjx6jV-49">
          <mxGeometry x="-0.4159" y="1" relative="1" as="geometry">
            <mxPoint as="offset" />
          </mxGeometry>
        </mxCell>
        <mxCell id="NHE60Ce-i3VNeDLjx6jV-4" value="二维码" style="rounded=1;whiteSpace=wrap;html=1;" vertex="1" parent="1">
          <mxGeometry x="540" y="20" width="60" height="30" as="geometry" />
        </mxCell>
        <mxCell id="NHE60Ce-i3VNeDLjx6jV-46" style="edgeStyle=orthogonalEdgeStyle;rounded=0;orthogonalLoop=1;jettySize=auto;html=1;" edge="1" parent="1" target="NHE60Ce-i3VNeDLjx6jV-41">
          <mxGeometry relative="1" as="geometry">
            <mxPoint x="980" y="220" as="sourcePoint" />
            <Array as="points">
              <mxPoint x="960" y="220" />
              <mxPoint x="960" y="240" />
              <mxPoint x="1100" y="240" />
            </Array>
          </mxGeometry>
        </mxCell>
        <mxCell id="NHE60Ce-i3VNeDLjx6jV-52" style="edgeStyle=orthogonalEdgeStyle;rounded=0;orthogonalLoop=1;jettySize=auto;html=1;entryX=0.5;entryY=0;entryDx=0;entryDy=0;" edge="1" parent="1" source="NHE60Ce-i3VNeDLjx6jV-5" target="NHE60Ce-i3VNeDLjx6jV-50">
          <mxGeometry relative="1" as="geometry" />
        </mxCell>
        <mxCell id="NHE60Ce-i3VNeDLjx6jV-89" value="pay.xft.xin/c" style="edgeLabel;html=1;align=center;verticalAlign=middle;resizable=0;points=[];" vertex="1" connectable="0" parent="NHE60Ce-i3VNeDLjx6jV-52">
          <mxGeometry x="-0.5444" y="-2" relative="1" as="geometry">
            <mxPoint as="offset" />
          </mxGeometry>
        </mxCell>
        <mxCell id="NHE60Ce-i3VNeDLjx6jV-5" value="API" style="rounded=1;whiteSpace=wrap;html=1;" vertex="1" parent="1">
          <mxGeometry x="930" y="20" width="60" height="30" as="geometry" />
        </mxCell>
        <mxCell id="NHE60Ce-i3VNeDLjx6jV-20" style="edgeStyle=orthogonalEdgeStyle;rounded=0;orthogonalLoop=1;jettySize=auto;html=1;entryX=0.808;entryY=-0.042;entryDx=0;entryDy=0;entryPerimeter=0;" edge="1" parent="1" source="NHE60Ce-i3VNeDLjx6jV-8" target="NHE60Ce-i3VNeDLjx6jV-11">
          <mxGeometry relative="1" as="geometry">
            <Array as="points">
              <mxPoint x="180" y="310" />
              <mxPoint x="120" y="310" />
              <mxPoint x="120" y="335" />
              <mxPoint x="127" y="335" />
            </Array>
          </mxGeometry>
        </mxCell>
        <mxCell id="NHE60Ce-i3VNeDLjx6jV-21" style="edgeStyle=orthogonalEdgeStyle;rounded=0;orthogonalLoop=1;jettySize=auto;html=1;" edge="1" parent="1" source="NHE60Ce-i3VNeDLjx6jV-8" target="NHE60Ce-i3VNeDLjx6jV-17">
          <mxGeometry relative="1" as="geometry" />
        </mxCell>
        <mxCell id="NHE60Ce-i3VNeDLjx6jV-8" value="插件-GW" style="ellipse;whiteSpace=wrap;html=1;" vertex="1" parent="1">
          <mxGeometry x="120" y="120" width="120" height="60" as="geometry" />
        </mxCell>
        <mxCell id="NHE60Ce-i3VNeDLjx6jV-14" value="" style="group" vertex="1" connectable="0" parent="1">
          <mxGeometry x="50" y="340" width="120" height="120" as="geometry" />
        </mxCell>
        <mxCell id="NHE60Ce-i3VNeDLjx6jV-11" value="" style="whiteSpace=wrap;html=1;aspect=fixed;" vertex="1" parent="NHE60Ce-i3VNeDLjx6jV-14">
          <mxGeometry width="120" height="120" as="geometry" />
        </mxCell>
        <mxCell id="NHE60Ce-i3VNeDLjx6jV-9" value="插件-BFF" style="rounded=1;whiteSpace=wrap;html=1;" vertex="1" parent="NHE60Ce-i3VNeDLjx6jV-14">
          <mxGeometry x="20" y="30" width="60" height="30" as="geometry" />
        </mxCell>
        <mxCell id="NHE60Ce-i3VNeDLjx6jV-13" value="插件-BFF" style="rounded=1;whiteSpace=wrap;html=1;" vertex="1" parent="NHE60Ce-i3VNeDLjx6jV-14">
          <mxGeometry x="20" y="70" width="60" height="30" as="geometry" />
        </mxCell>
        <mxCell id="NHE60Ce-i3VNeDLjx6jV-16" value="" style="group" vertex="1" connectable="0" parent="1">
          <mxGeometry x="210" y="340" width="120" height="120" as="geometry" />
        </mxCell>
        <mxCell id="NHE60Ce-i3VNeDLjx6jV-17" value="" style="whiteSpace=wrap;html=1;aspect=fixed;" vertex="1" parent="NHE60Ce-i3VNeDLjx6jV-16">
          <mxGeometry width="120" height="120" as="geometry" />
        </mxCell>
        <mxCell id="NHE60Ce-i3VNeDLjx6jV-18" value="插件-BFF" style="rounded=1;whiteSpace=wrap;html=1;" vertex="1" parent="NHE60Ce-i3VNeDLjx6jV-16">
          <mxGeometry x="20" y="30" width="60" height="30" as="geometry" />
        </mxCell>
        <mxCell id="NHE60Ce-i3VNeDLjx6jV-19" value="插件-BFF" style="rounded=1;whiteSpace=wrap;html=1;" vertex="1" parent="NHE60Ce-i3VNeDLjx6jV-16">
          <mxGeometry x="20" y="70" width="60" height="30" as="geometry" />
        </mxCell>
        <mxCell id="NHE60Ce-i3VNeDLjx6jV-27" value="" style="group" vertex="1" connectable="0" parent="1">
          <mxGeometry x="400" y="310" width="160" height="160" as="geometry" />
        </mxCell>
        <mxCell id="NHE60Ce-i3VNeDLjx6jV-26" value="" style="whiteSpace=wrap;html=1;aspect=fixed;" vertex="1" parent="NHE60Ce-i3VNeDLjx6jV-27">
          <mxGeometry width="160" height="160" as="geometry" />
        </mxCell>
        <mxCell id="NHE60Ce-i3VNeDLjx6jV-10" value="二维码-BFF" style="rounded=1;whiteSpace=wrap;html=1;" vertex="1" parent="NHE60Ce-i3VNeDLjx6jV-27">
          <mxGeometry x="20" y="70" width="80" height="30" as="geometry" />
        </mxCell>
        <mxCell id="NHE60Ce-i3VNeDLjx6jV-24" value="二维码-BFF" style="rounded=1;whiteSpace=wrap;html=1;" vertex="1" parent="NHE60Ce-i3VNeDLjx6jV-27">
          <mxGeometry x="20" y="30" width="80" height="30" as="geometry" />
        </mxCell>
        <mxCell id="NHE60Ce-i3VNeDLjx6jV-25" value="二维码-BFF" style="rounded=1;whiteSpace=wrap;html=1;" vertex="1" parent="NHE60Ce-i3VNeDLjx6jV-27">
          <mxGeometry x="20" y="110" width="80" height="30" as="geometry" />
        </mxCell>
        <mxCell id="NHE60Ce-i3VNeDLjx6jV-28" value="" style="group" vertex="1" connectable="0" parent="1">
          <mxGeometry x="585" y="310" width="160" height="160" as="geometry" />
        </mxCell>
        <mxCell id="NHE60Ce-i3VNeDLjx6jV-29" value="" style="whiteSpace=wrap;html=1;aspect=fixed;" vertex="1" parent="NHE60Ce-i3VNeDLjx6jV-28">
          <mxGeometry width="160" height="160" as="geometry" />
        </mxCell>
        <mxCell id="NHE60Ce-i3VNeDLjx6jV-30" value="二维码-BFF" style="rounded=1;whiteSpace=wrap;html=1;" vertex="1" parent="NHE60Ce-i3VNeDLjx6jV-28">
          <mxGeometry x="20" y="70" width="80" height="30" as="geometry" />
        </mxCell>
        <mxCell id="NHE60Ce-i3VNeDLjx6jV-31" value="二维码-BFF" style="rounded=1;whiteSpace=wrap;html=1;" vertex="1" parent="NHE60Ce-i3VNeDLjx6jV-28">
          <mxGeometry x="20" y="30" width="80" height="30" as="geometry" />
        </mxCell>
        <mxCell id="NHE60Ce-i3VNeDLjx6jV-32" value="二维码-BFF" style="rounded=1;whiteSpace=wrap;html=1;" vertex="1" parent="NHE60Ce-i3VNeDLjx6jV-28">
          <mxGeometry x="20" y="110" width="80" height="30" as="geometry" />
        </mxCell>
        <mxCell id="NHE60Ce-i3VNeDLjx6jV-35" value="" style="group" vertex="1" connectable="0" parent="1">
          <mxGeometry x="840" y="320" width="160" height="160" as="geometry" />
        </mxCell>
        <mxCell id="NHE60Ce-i3VNeDLjx6jV-36" value="" style="whiteSpace=wrap;html=1;aspect=fixed;" vertex="1" parent="NHE60Ce-i3VNeDLjx6jV-35">
          <mxGeometry width="160" height="160" as="geometry" />
        </mxCell>
        <mxCell id="NHE60Ce-i3VNeDLjx6jV-37" value="API-BFF" style="rounded=1;whiteSpace=wrap;html=1;" vertex="1" parent="NHE60Ce-i3VNeDLjx6jV-35">
          <mxGeometry x="20" y="70" width="80" height="30" as="geometry" />
        </mxCell>
        <mxCell id="NHE60Ce-i3VNeDLjx6jV-38" value="API-BFF" style="rounded=1;whiteSpace=wrap;html=1;" vertex="1" parent="NHE60Ce-i3VNeDLjx6jV-35">
          <mxGeometry x="20" y="30" width="80" height="30" as="geometry" />
        </mxCell>
        <mxCell id="NHE60Ce-i3VNeDLjx6jV-39" value="API-BFF" style="rounded=1;whiteSpace=wrap;html=1;" vertex="1" parent="NHE60Ce-i3VNeDLjx6jV-35">
          <mxGeometry x="20" y="110" width="80" height="30" as="geometry" />
        </mxCell>
        <mxCell id="NHE60Ce-i3VNeDLjx6jV-40" value="" style="group" vertex="1" connectable="0" parent="1">
          <mxGeometry x="1020" y="320" width="160" height="160" as="geometry" />
        </mxCell>
        <mxCell id="NHE60Ce-i3VNeDLjx6jV-41" value="" style="whiteSpace=wrap;html=1;aspect=fixed;" vertex="1" parent="NHE60Ce-i3VNeDLjx6jV-40">
          <mxGeometry width="160" height="160" as="geometry" />
        </mxCell>
        <mxCell id="NHE60Ce-i3VNeDLjx6jV-42" value="API-BFF" style="rounded=1;whiteSpace=wrap;html=1;" vertex="1" parent="NHE60Ce-i3VNeDLjx6jV-40">
          <mxGeometry x="20" y="70" width="80" height="30" as="geometry" />
        </mxCell>
        <mxCell id="NHE60Ce-i3VNeDLjx6jV-43" value="API-BFF" style="rounded=1;whiteSpace=wrap;html=1;" vertex="1" parent="NHE60Ce-i3VNeDLjx6jV-40">
          <mxGeometry x="20" y="30" width="80" height="30" as="geometry" />
        </mxCell>
        <mxCell id="NHE60Ce-i3VNeDLjx6jV-44" value="API-BFF" style="rounded=1;whiteSpace=wrap;html=1;" vertex="1" parent="NHE60Ce-i3VNeDLjx6jV-40">
          <mxGeometry x="20" y="110" width="80" height="30" as="geometry" />
        </mxCell>
        <mxCell id="NHE60Ce-i3VNeDLjx6jV-47" value="二维码-GW" style="ellipse;whiteSpace=wrap;html=1;" vertex="1" parent="1">
          <mxGeometry x="510" y="120" width="120" height="60" as="geometry" />
        </mxCell>
        <mxCell id="NHE60Ce-i3VNeDLjx6jV-56" value="" style="rounded=0;whiteSpace=wrap;html=1;" vertex="1" parent="1">
          <mxGeometry x="50" y="590" width="1150" height="610" as="geometry" />
        </mxCell>
        <mxCell id="NHE60Ce-i3VNeDLjx6jV-51" style="edgeStyle=orthogonalEdgeStyle;rounded=0;orthogonalLoop=1;jettySize=auto;html=1;entryX=0.5;entryY=0;entryDx=0;entryDy=0;" edge="1" parent="1" source="NHE60Ce-i3VNeDLjx6jV-50" target="NHE60Ce-i3VNeDLjx6jV-36">
          <mxGeometry relative="1" as="geometry" />
        </mxCell>
        <mxCell id="NHE60Ce-i3VNeDLjx6jV-50" value="API-GW" style="ellipse;whiteSpace=wrap;html=1;" vertex="1" parent="1">
          <mxGeometry x="900" y="120" width="120" height="60" as="geometry" />
        </mxCell>
        <mxCell id="NHE60Ce-i3VNeDLjx6jV-59" value="merchant" style="rounded=0;whiteSpace=wrap;html=1;" vertex="1" parent="1">
          <mxGeometry x="350" y="680" width="110" height="30" as="geometry" />
        </mxCell>
        <mxCell id="NHE60Ce-i3VNeDLjx6jV-60" value="核心服务" style="text;html=1;strokeColor=none;fillColor=none;align=center;verticalAlign=middle;whiteSpace=wrap;rounded=0;" vertex="1" parent="1">
          <mxGeometry x="50" y="590" width="60" height="30" as="geometry" />
        </mxCell>
        <mxCell id="NHE60Ce-i3VNeDLjx6jV-62" value="BFF" style="text;html=1;strokeColor=none;fillColor=none;align=center;verticalAlign=middle;whiteSpace=wrap;rounded=0;" vertex="1" parent="1">
          <mxGeometry x="50" y="290" width="60" height="30" as="geometry" />
        </mxCell>
        <mxCell id="NHE60Ce-i3VNeDLjx6jV-67" value="网关" style="text;html=1;strokeColor=none;fillColor=none;align=center;verticalAlign=middle;whiteSpace=wrap;rounded=0;" vertex="1" parent="1">
          <mxGeometry x="50" y="90" width="60" height="30" as="geometry" />
        </mxCell>
        <mxCell id="NHE60Ce-i3VNeDLjx6jV-69" value="account" style="rounded=0;whiteSpace=wrap;html=1;" vertex="1" parent="1">
          <mxGeometry x="90" y="680" width="110" height="30" as="geometry" />
        </mxCell>
        <mxCell id="NHE60Ce-i3VNeDLjx6jV-85" value="gRPC" style="edgeStyle=orthogonalEdgeStyle;rounded=0;orthogonalLoop=1;jettySize=auto;html=1;exitX=1;exitY=0.5;exitDx=0;exitDy=0;" edge="1" parent="1" source="NHE60Ce-i3VNeDLjx6jV-70" target="NHE60Ce-i3VNeDLjx6jV-83">
          <mxGeometry relative="1" as="geometry" />
        </mxCell>
        <mxCell id="NHE60Ce-i3VNeDLjx6jV-70" value="transaction" style="rounded=0;whiteSpace=wrap;html=1;" vertex="1" parent="1">
          <mxGeometry x="530" y="680" width="110" height="30" as="geometry" />
        </mxCell>
        <mxCell id="NHE60Ce-i3VNeDLjx6jV-71" value="wechat" style="rounded=0;whiteSpace=wrap;html=1;" vertex="1" parent="1">
          <mxGeometry x="160" y="920" width="110" height="30" as="geometry" />
        </mxCell>
        <mxCell id="NHE60Ce-i3VNeDLjx6jV-72" value="alipay" style="rounded=0;whiteSpace=wrap;html=1;" vertex="1" parent="1">
          <mxGeometry x="300" y="920" width="110" height="30" as="geometry" />
        </mxCell>
        <mxCell id="NHE60Ce-i3VNeDLjx6jV-73" value="unionpay" style="rounded=0;whiteSpace=wrap;html=1;" vertex="1" parent="1">
          <mxGeometry x="450" y="920" width="110" height="30" as="geometry" />
        </mxCell>
        <mxCell id="NHE60Ce-i3VNeDLjx6jV-82" value="" style="rounded=0;whiteSpace=wrap;html=1;" vertex="1" parent="1">
          <mxGeometry x="899" y="600" width="270" height="230" as="geometry" />
        </mxCell>
        <mxCell id="NHE60Ce-i3VNeDLjx6jV-75" value="PD" style="rounded=0;whiteSpace=wrap;html=1;" vertex="1" parent="1">
          <mxGeometry x="990" y="720" width="70" height="40" as="geometry" />
        </mxCell>
        <mxCell id="NHE60Ce-i3VNeDLjx6jV-76" value="PD" style="rounded=0;whiteSpace=wrap;html=1;" vertex="1" parent="1">
          <mxGeometry x="1080" y="720" width="70" height="40" as="geometry" />
        </mxCell>
        <mxCell id="NHE60Ce-i3VNeDLjx6jV-78" value="PD" style="rounded=0;whiteSpace=wrap;html=1;" vertex="1" parent="1">
          <mxGeometry x="1040" y="787" width="70" height="40" as="geometry" />
        </mxCell>
        <mxCell id="NHE60Ce-i3VNeDLjx6jV-79" value="dashboard" style="rounded=0;whiteSpace=wrap;html=1;" vertex="1" parent="1">
          <mxGeometry x="140" y="770" width="110" height="30" as="geometry" />
        </mxCell>
        <mxCell id="NHE60Ce-i3VNeDLjx6jV-80" value="tenant" style="rounded=0;whiteSpace=wrap;html=1;" vertex="1" parent="1">
          <mxGeometry x="215" y="680" width="110" height="30" as="geometry" />
        </mxCell>
        <mxCell id="NHE60Ce-i3VNeDLjx6jV-83" value="&lt;h1&gt;PD&lt;/h1&gt;&lt;div&gt;元数据、基础数据&lt;/div&gt;" style="text;html=1;strokeColor=none;fillColor=none;spacing=5;spacingTop=-20;whiteSpace=wrap;overflow=hidden;rounded=0;" vertex="1" parent="1">
          <mxGeometry x="899" y="600" width="190" height="120" as="geometry" />
        </mxCell>
        <mxCell id="cU7no9KoAotk2B0ehXQZ-9" value="API" style="rounded=1;whiteSpace=wrap;html=1;" vertex="1" parent="1">
          <mxGeometry x="1120" y="20" width="60" height="30" as="geometry" />
        </mxCell>
      </root>
    </mxGraphModel>
  </diagram>
</mxfile>
